<svg id="Ebene_1" data-name="Ebene 1" xmlns="http://www.w3.org/2000/svg" viewBox="0 0 90 90"><title>darvin-boilerplate-logo-icon-01</title><path d="M63.43,15.61a2.68,2.68,0,0,0-2.6,1.83A14.17,14.17,0,0,1,59,21.39a5.05,5.05,0,0,1-4.71,1.5c.17,2,.4,4.12.71,6.39a21.21,21.21,0,0,1,5.58,34l0,5a6.18,6.18,0,0,1,2.24-2.33c3.57-2.51,10.33.86,11.87-1.61s-5.81-7.07-5-9.86S80.88,51.14,81,48.21,69.84,44.43,69.2,41.56,73.84,35,72.5,32.38s-6.89-.24-9.11-2.14A6.66,6.66,0,0,1,62,23.52c.51-1.67,2.49-2.94,3.34-4.4a2.47,2.47,0,0,0-1-3.31,2,2,0,0,0-.9-.2ZM31.13,17a1.38,1.38,0,0,0-.56.16c-2.55,1.34.8,9.41-1.32,11.38s-9.4-1.59-10.94.88,5.12,7,4.26,9.81-9.41,3-9.52,6,6.16,4.72,8,7a3.47,3.47,0,0,1,0,4.07c-.62.87-1.36.8-2.42,1-5.17,1-2.66,8.7,2,6,1-.59.92-.78,1.83-1.1,2.89-1,4.62,2.28,4.79,4,.33,3.34-3.09,7.39.21,10a3.89,3.89,0,0,0,2.52.92l-.05-14.38A21.2,21.2,0,0,1,36.54,29c.5-2.63.86-5.14,1.13-7.34C35.52,20,33.13,17.08,31.33,17ZM60.52,70.83l-.08,8.67c2.19.67,4.82-1.87,3.34-4.07-1.78-2.67-2.63-2.86-3.26-4.6Zm0,0" style="fill:#ff2b21"/><path d="M26.44,14.06c.72,1.3,2.09,1.9,3.08,1.35s1.2-2.05.48-3.35-2.09-1.9-3.08-1.35-1.2,2.05-.48,3.35Zm0,0" style="fill:#ff2b21"/><path d="M9.55,46.61a2.13,2.13,0,0,0,2.13-2.08,2.16,2.16,0,0,0-2.54-1.59A2.13,2.13,0,0,0,7,45a2.16,2.16,0,0,0,2.54,1.59Zm0,0" style="fill:#ff2b21"/><path d="M76.46,66.77a1.69,1.69,0,0,0,2.31-.56,1.77,1.77,0,0,0-1.13-2.15,1.69,1.69,0,0,0-2.31.56,1.77,1.77,0,0,0,1.13,2.15Zm0,0" style="fill:#ff2b21"/><path d="M76.38,32.47a1.88,1.88,0,1,0-2.62-.84,2,2,0,0,0,2.62.84Zm0,0" style="fill:#ff2b21"/><path d="M26.22,80.63a1.6,1.6,0,0,0-.43-2.2,1.55,1.55,0,0,0-2.12.61,1.6,1.6,0,0,0,.43,2.2,1.54,1.54,0,0,0,2.12-.61Zm0,0" style="fill:#ff2b21"/><path d="M51.71,15.76s.83,24.07,6.66,33.65L58.1,81a3.12,3.12,0,0,1-3,3.21L35.25,84a3.12,3.12,0,0,1-3-3.26l.27-31.55C39.24,38,40,15.66,40,15.66Zm0,0" style="fill:#ff2b21"/><path d="M42,15.66S41.29,38,34.59,49.18h.15c0,.34,0,1.91,0,4.29A15.52,15.52,0,0,1,39,52.1c0-1.83,0-3.19,0-3.21h0c6.47-11.23,5.14-33,5.15-33.19ZM34.64,79.22c0,2.74,0,4.67,0,4.69l.1,0a2.77,2.77,0,0,0,.4.05c.91,0,3.78,0,3.78,0s0-2,0-4.76Zm0,0" style="fill:#ff6b64"/><path d="M44.88,51.59c-4,0-7.89.66-10.19,1.89l-.22,25.74L56,79.4l.22-25.73a28.8,28.8,0,0,0-11.36-2.07Zm0,0" style="fill:#fff"/><path d="M52.38,6.86,39.32,6.75a.91.91,0,0,0-.92.91l-.05,6a.91.91,0,0,0,.91.92l13.06.11a.91.91,0,0,0,.92-.91l.05-6a.91.91,0,0,0-.91-.92Zm0,0" style="fill:#ff2b21"/><path d="M45.48,58.73l7.1,4v8l-7.1,4-7.1-4v-8Z" style="fill:#fff"/><path d="M51.32,70.51l-5.6,3.17V71.21l3.49-1.92,2.11,1.22Zm.38-.35V63.54l-2,1.18V69l2,1.18Zm-12.08.35,5.6,3.17V71.21l-3.49-1.92-2.11,1.22Zm-.38-.35V63.54l2,1.18V69Zm.24-7.05,5.74-3.25v2.38l-3.68,2,0,0-2-1.18Zm12,0-5.74-3.25v2.38l3.68,2,0,0,2-1.17Z" style="fill:#ff8b85"/><path d="M45.23,70.65l-3.44-1.89V65l3.44,2Zm.49,0,3.44-1.89V65l-3.44,2ZM42,64.57l3.46-1.9,3.46,1.9-3.46,2Z" style="fill:#ff2b21"/></svg>
